<svg width="96" height="40" viewBox="0 0 96 40" fill="none" xmlns="http://www.w3.org/2000/svg">
<path fill-rule="evenodd" clip-rule="evenodd" d="M37.2716 25.2383V18.9939C37.2716 18.3754 37.0159 17.7822 36.5607 17.3448C36.1055 16.9074 35.488 16.6617 34.8443 16.6617C34.2005 16.6617 33.5831 16.9074 33.1279 17.3448C32.6726 17.7822 32.4169 18.3754 32.4169 18.9939V25.2383H28.9716V18.9939C28.9716 18.3754 28.7159 17.7822 28.2607 17.3448C27.8055 16.9074 27.1881 16.6617 26.5443 16.6617C25.9005 16.6617 25.2831 16.9074 24.8279 17.3448C24.3727 17.7822 24.1169 18.3754 24.1169 18.9939V25.2383H20.6717V13.8029H24.1169L24.1185 16.4172C24.77 14.8674 26.159 13.6524 28.032 13.6524C30.0757 13.6524 31.518 14.848 32.1037 16.5112C32.9635 14.5668 34.2962 13.6524 36.332 13.6524C38.3678 13.6524 40.7169 15.4201 40.7169 18.0159V25.2383H37.2716ZM48.2339 13.6524C47.4736 13.6473 46.7203 13.7915 46.0202 14.0761C45.32 14.3607 44.6878 14.7797 44.1622 15.3075C43.932 15.5296 42.2829 16.9 42.2829 19.671C42.2829 23.6835 45.6233 25.3887 48.5471 25.3887C50.3637 25.3887 52.2586 24.588 53.4096 23.3424L51.6337 21.6087C50.7966 22.3674 49.6975 22.8026 48.5471 22.8308C47.1533 22.8308 45.6828 21.9673 45.415 20.5738H54.0282C54.1311 20.2831 54.184 19.9781 54.1848 19.671C54.1848 17.7824 53.6054 16.5152 52.6188 15.458C51.3503 14.164 50.1084 13.6524 48.2339 13.6524ZM45.5716 18.6178C45.8378 17.08 46.8824 16.2103 48.2339 16.2103C49.9127 16.2103 50.8366 17.1081 50.8961 18.6178H45.5716ZM64.364 13.8029V16.2103C63.888 14.427 62.3344 13.6524 60.6055 13.6524C58.861 13.6524 57.2104 14.8125 56.4117 16.3122C55.981 17.1229 55.7508 18.4495 55.7508 19.5206C55.7508 20.6062 55.981 21.7804 56.4117 22.6119C56.8129 23.4114 57.4451 24.083 58.233 24.5464C59.0438 25.0123 59.9742 25.2503 60.9188 25.2336C61.6304 25.2469 62.3357 25.1022 62.9797 24.8108C63.5794 24.529 63.9694 24.1187 64.364 23.5831V24.0345C64.364 24.8099 64.1855 25.6641 63.6155 26.1224C63.0007 26.6593 62.217 26.9836 61.3886 27.0439C60.3518 27.1341 58.7623 26.8803 57.652 26.1191L56.4007 28.4026C57.8337 29.3329 59.5203 30.0023 61.7018 29.9027C63.8833 29.8031 65.9833 28.5607 67.0372 26.9686C67.5634 26.1722 67.8093 25.2566 67.8093 24.185V13.8029H64.364ZM61.708 22.7599C60.8749 22.7599 60.2062 22.4886 59.7019 21.9459C59.1977 21.4043 59.0536 20.3946 59.0395 19.5206C59.0536 18.6468 59.2008 17.6336 59.7129 17.0839C59.9697 16.8234 60.279 16.6159 60.6221 16.4741C60.9651 16.3323 61.3346 16.2592 61.708 16.2592C62.0815 16.2592 62.451 16.3323 62.794 16.4741C63.137 16.6159 63.4464 16.8234 63.7032 17.0839C64.2153 17.6336 64.364 18.6468 64.364 19.5206C64.364 20.3943 64.2153 21.4035 63.7032 21.9459C63.4526 22.2133 63.1441 22.4247 62.7994 22.5653C62.4548 22.7059 62.0823 22.7724 61.708 22.7599ZM80.6508 25.2383V17.8654C80.6367 16.583 80.123 15.5192 79.2523 14.8004C78.3816 14.0817 77.1585 13.7222 75.58 13.7222C74.67 13.7138 73.7628 13.8204 72.8817 14.0392C71.9722 14.2845 71.0908 14.6172 70.2507 15.0323L71.3031 17.2734C72.5466 16.6113 73.7164 16.2803 74.8126 16.2803C75.616 16.2803 76.2262 16.4458 76.6433 16.7768C77.0599 17.1078 77.2055 17.56 77.2055 18.1659V18.4668H73.9168C72.4839 18.481 71.4817 18.715 70.7002 19.314C69.9187 19.913 69.5272 20.7484 69.5272 21.8194C69.5272 22.8765 69.8926 23.7327 70.6235 24.3881C71.3543 25.0436 72.3409 25.3713 73.5833 25.3713C74.3265 25.3848 75.065 25.2555 75.7554 24.9908C76.3833 24.7371 76.8907 24.0278 77.2055 23.1313V25.2378H80.6508V25.2383ZM74.5276 23.0461C73.9576 23.0461 73.5065 22.916 73.1777 22.6549C73.0167 22.5291 72.8884 22.3691 72.8028 22.1875C72.7172 22.0059 72.6766 21.8077 72.6844 21.6084C72.6844 21.157 72.8425 20.8298 73.1557 20.6253C73.469 20.4208 73.8855 20.2729 74.5433 20.2729H77.2055V21.3262C77.1609 21.5783 77.0614 21.8185 76.9135 22.0311C76.7657 22.2437 76.5727 22.424 76.3473 22.56C75.8048 22.8927 75.1711 23.0621 74.5276 23.0463V23.0461ZM10.2074 25.2383C12.9088 24.6652 15.5037 22.0785 15.5037 19.3125C15.5037 17.7761 14.8685 16.3026 13.7378 15.2162C12.6071 14.1299 11.0736 13.5195 9.47451 13.5195C7.87546 13.5195 6.34189 14.1299 5.21119 15.2162C4.08049 16.3026 3.44527 17.7761 3.44527 19.3125C3.44527 22.0782 6.04019 24.6652 8.7416 25.2383H2.05307C0.945603 23.8975 0.254035 22.2838 0.0577113 20.5826C-0.138612 18.8813 0.168259 17.1613 0.943136 15.62C1.71801 14.0786 2.92949 12.7785 4.43852 11.8686C5.94754 10.9588 7.69298 10.4762 9.47451 10.4762C11.256 10.4762 13.0015 10.9588 14.5105 11.8686C16.0195 12.7785 17.231 14.0786 18.0059 15.62C18.7808 17.1613 19.0876 18.8813 18.8913 20.5826C18.695 22.2838 18.0034 23.8975 16.8959 25.2383H10.2074ZM92.5949 21.3784L95.6847 25.2383H91.9262L89.2765 21.928H85.9753V25.2383H82.53V21.928H85.9753V18.7709H90.0016C90.3531 18.7735 90.7017 18.7092 91.0272 18.5818C91.3527 18.4543 91.6488 18.2662 91.8983 18.0283C92.1478 17.7904 92.3458 17.5074 92.481 17.1957C92.6161 16.8839 92.6857 16.5495 92.6857 16.2117C92.6857 15.874 92.6161 15.5396 92.481 15.2278C92.3458 14.916 92.1478 14.633 91.8983 14.3951C91.6488 14.1572 91.3527 13.9691 91.0272 13.8417C90.7017 13.7142 90.3531 13.6499 90.0016 13.6525H85.9753V10.4926H90.047C91.3987 10.4921 92.7104 10.9339 93.766 11.7451C94.8217 12.5563 95.5584 13.6887 95.855 14.9558C96.1516 16.2229 95.9903 17.5493 95.3978 18.7167C94.8053 19.884 93.8167 20.8227 92.5949 21.3784Z" fill="#1B1B23"/>
</svg>
